<svg xmlns="http://www.w3.org/2000/svg" width="150" height="150" viewBox="0 0 150 150">
  <g id="Иконка" transform="translate(-67 -1585)">
    <g id="Rectangle_32" data-name="Rectangle 32" transform="translate(67 1585)" fill="#fff" stroke="#858282" stroke-width="5">
      <rect width="150" height="150" rx="75" stroke="none"/>
      <rect x="2.5" y="2.5" width="145" height="145" rx="72.5" fill="none"/>
    </g>
    <path id="snowflake" d="M97.821,79.448l-14.86-8.6L96.23,68.54A4.8,4.8,0,0,0,99.8,63.009a4.324,4.324,0,0,0-5.273-3.452L75.457,66.5,57.124,57.143l18.334-9.358L94.525,54.73A4.324,4.324,0,0,0,99.8,51.277a4.8,4.8,0,0,0-3.567-5.531l-13.27-2.305,14.86-8.6a4.66,4.66,0,0,0-4.646-8.069l-14.86,8.6L82.959,22.7a4.8,4.8,0,0,0-2.994-5.863,4.321,4.321,0,0,0-5.618,2.852l-3.535,20.03L54.646,49.074V30.357L70.178,17.272a4.343,4.343,0,0,0-.346-6.3,4.779,4.779,0,0,0-6.561.332L54.646,21.67V4.464a4.649,4.649,0,0,0-9.292,0V21.67L36.728,11.3a4.779,4.779,0,0,0-6.561-.332,4.343,4.343,0,0,0-.345,6.3L45.354,30.357V49.074L29.188,39.716l-3.535-20.03a4.321,4.321,0,0,0-5.618-2.852A4.8,4.8,0,0,0,17.041,22.7l4.644,12.676-14.86-8.6a4.546,4.546,0,0,0-6.179,1.8,4.572,4.572,0,0,0,1.533,6.267l14.86,8.6L3.77,45.746A4.8,4.8,0,0,0,.2,51.278,4.324,4.324,0,0,0,5.475,54.73l19.067-6.945,18.334,9.358L24.542,66.5,5.475,59.556A4.324,4.324,0,0,0,.2,63.008,4.8,4.8,0,0,0,3.769,68.54l13.27,2.305-14.86,8.6A4.572,4.572,0,0,0,.646,85.714a4.546,4.546,0,0,0,6.179,1.8l14.86-8.6L17.041,91.589a4.8,4.8,0,0,0,2.994,5.863A4.321,4.321,0,0,0,25.653,94.6l3.535-20.03,16.166-9.358V83.928L29.822,97.013a4.343,4.343,0,0,0,.345,6.3,4.78,4.78,0,0,0,6.561-.332l8.626-10.371v17.206a4.649,4.649,0,0,0,9.292,0V92.616l8.626,10.371a4.78,4.78,0,0,0,6.561.332,4.343,4.343,0,0,0,.346-6.3L54.646,83.928V65.211L70.812,74.57,74.347,94.6a4.321,4.321,0,0,0,5.618,2.852,4.8,4.8,0,0,0,2.994-5.863L78.314,78.913l14.86,8.6a4.66,4.66,0,0,0,4.646-8.068Z" transform="translate(92 1603)" fill="#ff7f7f"/>
  </g>
</svg>
