<svg xmlns="http://www.w3.org/2000/svg" width="150" height="150" viewBox="0 0 150 150">
  <g id="Иконка" transform="translate(-67 -1585)">
    <g id="Rectangle_32" data-name="Rectangle 32" transform="translate(67 1585)" fill="#fff" stroke="rgba(255,0,0,0.5)" stroke-width="5">
      <rect width="150" height="150" rx="75" stroke="none"/>
      <rect x="2.5" y="2.5" width="145" height="145" rx="72.5" fill="none"/>
    </g>
    <path id="star" d="M115.378,32.046,88.07,28.064,75.864,3.317a5.986,5.986,0,0,0-10.729,0L52.929,28.064,25.621,32.046a5.984,5.984,0,0,0-3.308,10.206L42.07,61.5,37.4,88.7A5.978,5.978,0,0,0,46.07,95L70.5,82.158,94.929,95a5.982,5.982,0,0,0,8.673-6.3L98.929,61.5l19.757-19.252a5.984,5.984,0,0,0-3.308-10.206ZM89.3,58.363l4.43,25.869L70.5,72.027,47.266,84.233,51.7,58.363l-18.8-18.318L58.873,36.27,70.5,12.719,82.126,36.27l25.981,3.776L89.3,58.363Z" transform="translate(71.5 1612.013)" fill="#858282"/>
  </g>
</svg>
