<svg xmlns="http://www.w3.org/2000/svg" width="150" height="150" viewBox="0 0 150 150">
  <g id="Иконка" transform="translate(-67 -1585)">
    <g id="Rectangle_32" data-name="Rectangle 32" transform="translate(67 1585)" fill="#fff" stroke="#858282" stroke-width="5">
      <rect width="150" height="150" rx="75" stroke="none"/>
      <rect x="2.5" y="2.5" width="145" height="145" rx="72.5" fill="none"/>
    </g>
    <path id="money-bill-alt" d="M50,76.5c-8.284,0-15,7.834-15,17.5s6.716,17.5,15,17.5S65,103.667,65,94,58.284,76.5,50,76.5Zm6.25,26.25A1.25,1.25,0,0,1,55,104H45a1.25,1.25,0,0,1-1.25-1.25v-2.5A1.25,1.25,0,0,1,45,99h2.5V90.338l-.073.048a1.249,1.249,0,0,1-1.733-.347l-1.388-2.08a1.249,1.249,0,0,1,.347-1.733l2.4-1.6a3.748,3.748,0,0,1,2.08-.63H51.25a1.25,1.25,0,0,1,1.25,1.25V99H55a1.25,1.25,0,0,1,1.25,1.25ZM95,64H5a5,5,0,0,0-5,5v50a5,5,0,0,0,5,5H95a5,5,0,0,0,5-5V69A5,5,0,0,0,95,64Zm-2.5,42.5a10,10,0,0,0-10,10h-65a10,10,0,0,0-10-10v-25a10,10,0,0,0,10-10h65a10,10,0,0,0,10,10Z" transform="translate(92 1566)" fill="#ff7f7f"/>
  </g>
</svg>
