<svg xmlns="http://www.w3.org/2000/svg" width="150" height="150" viewBox="0 0 150 150">
  <g id="Иконка" transform="translate(-67 -1585)">
    <g id="Rectangle_32" data-name="Rectangle 32" transform="translate(67 1585)" fill="#fff" stroke="rgba(255,0,0,0.5)" stroke-width="5">
      <rect width="150" height="150" rx="75" stroke="none"/>
      <rect x="2.5" y="2.5" width="145" height="145" rx="72.5" fill="none"/>
    </g>
    <path id="sun" d="M53.26,99.4,49.142,89.335a.813.813,0,0,0-1.183-.384l-9.25,5.725a7.9,7.9,0,0,1-11.827-8.593l2.587-10.566a.813.813,0,0,0-.731-1.007l-10.849-.8a7.9,7.9,0,0,1-4.517-13.9l8.3-7.028a.813.813,0,0,0,0-1.244l-8.3-7.028a7.9,7.9,0,0,1,4.517-13.9l10.849-.8a.813.813,0,0,0,.731-1.007L26.882,18.221A7.9,7.9,0,0,1,38.709,9.628l9.25,5.725a.813.813,0,0,0,1.183-.384L53.26,4.9a7.9,7.9,0,0,1,14.619,0L72,14.969a.814.814,0,0,0,1.183.384l9.25-5.725a7.9,7.9,0,0,1,11.827,8.593L91.67,28.787a.814.814,0,0,0,.731,1.007l10.849.8a7.9,7.9,0,0,1,4.518,13.9l-8.3,7.028a.813.813,0,0,0,0,1.244l8.3,7.028a7.9,7.9,0,0,1-4.518,13.9l-10.849.8a.813.813,0,0,0-.731,1.007l2.587,10.566A7.9,7.9,0,0,1,82.43,94.676l-9.25-5.726A.814.814,0,0,0,72,89.335L67.879,99.4a7.9,7.9,0,0,1-14.619,0ZM56.686,86.25l3.884,9.5,3.884-9.5A8.966,8.966,0,0,1,77.47,82.021l8.724,5.4-2.44-9.966A8.966,8.966,0,0,1,91.8,66.383l10.232-.759L94.2,59a8.966,8.966,0,0,1,0-13.686l7.832-6.628L91.8,37.921a8.966,8.966,0,0,1-8.045-11.072l2.44-9.966-8.724,5.4a8.966,8.966,0,0,1-13.016-4.229l-3.884-9.5-3.884,9.5a8.966,8.966,0,0,1-13.016,4.229l-8.724-5.4,2.44,9.966a8.966,8.966,0,0,1-8.045,11.072l-10.232.759,7.832,6.629a8.966,8.966,0,0,1,0,13.686l-7.832,6.629,10.232.759a8.966,8.966,0,0,1,8.044,11.072l-2.44,9.966,8.724-5.4A8.966,8.966,0,0,1,56.686,86.25Zm3.885-8.02A26.077,26.077,0,1,1,86.647,52.153,26.106,26.106,0,0,1,60.571,78.23Zm0-42.375a16.3,16.3,0,1,0,16.3,16.3A16.317,16.317,0,0,0,60.571,35.855Z" transform="translate(81.43 1608.001)" fill="#858282"/>
  </g>
</svg>
