<svg xmlns="http://www.w3.org/2000/svg" width="150" height="150" viewBox="0 0 150 150">
  <g id="Иконка" transform="translate(-67 -1585)">
    <g id="Rectangle_32" data-name="Rectangle 32" transform="translate(67 1585)" fill="#fff" stroke="#858282" stroke-width="5">
      <rect width="150" height="150" rx="75" stroke="none"/>
      <rect x="2.5" y="2.5" width="145" height="145" rx="72.5" fill="none"/>
    </g>
    <path id="heart" d="M89.531,38.291C78.242,28.8,60.8,30.225,50,41.221c-10.8-11-28.242-12.441-39.531-2.93C-4.219,50.654-2.07,70.81,8.4,81.494l18.837,19.191L42.656,116.4a10.258,10.258,0,0,0,14.687.02L91.6,81.514C102.051,70.83,104.238,50.674,89.531,38.291ZM84.922,74.912l-34.258,34.9a.8.8,0,0,1-1.328,0l-34.258-34.9C7.949,67.646,6.5,53.9,16.5,45.478c7.6-6.387,19.316-5.43,26.66,2.051L50,54.5l6.836-6.973c7.383-7.52,19.1-8.437,26.66-2.07C93.476,53.877,91.992,67.705,84.922,74.912Z" transform="translate(92 1584.022)" fill="#ff7f7f"/>
  </g>
</svg>
