<svg xmlns="http://www.w3.org/2000/svg" xmlns:xlink="http://www.w3.org/1999/xlink" width="299" height="30" viewBox="0 0 299 30"><defs><path id="94jwa" d="M1087.393 76.926l-4.265 4.22 1.104 6.3-5.773-2.727-5.513 2.728 1.02-5.962-4.6-4.674 6.218-.834 2.884-5.68 3.105 5.528 5.82 1.101zm3.743 2.356c0-7.046-5.712-12.759-12.758-12.759-7.046 0-12.756 5.713-12.756 12.759 0 7.045 5.71 12.757 12.756 12.757 7.047 0 12.758-5.712 12.758-12.757z"/><path id="94jwb" d="M997.165 75.03a12.16 12.16 0 0 0-2.318.82l.604-3.765h11.286v-5.56h-16.663l-2.223 13.484 5.98.854c.564-.627 1.08-1.058 1.551-1.3a4.189 4.189 0 0 1 1.965-.496c1.068 0 1.923.35 2.567 1.045.643.697.965 1.79.965 3.284 0 1.462-.32 2.56-.955 3.295-.64.736-1.446 1.104-2.423 1.104a3.198 3.198 0 0 1-2.256-.88c-.633-.59-1.035-1.445-1.208-2.577l-7.097.77c.344 1.177.774 2.156 1.29 2.944.518.788 1.193 1.492 2.025 2.113.832.622 1.843 1.09 3.034 1.403 1.188.315 2.615.471 4.28.471 2.322 0 4.227-.393 5.713-1.182a8.21 8.21 0 0 0 3.448-3.421c.808-1.493 1.212-3.052 1.212-4.672 0-2.305-.785-4.215-2.359-5.733-1.574-1.517-3.624-2.276-6.152-2.276-.747 0-1.502.093-2.266.275z"/><path id="94jwc" d="M1023.122 84.112c0 1.078-.33 1.967-.984 2.668-.655.701-1.395 1.05-2.22 1.05-.857 0-1.62-.344-2.287-1.034-.666-.689-1-1.578-1-2.668 0-1.144.318-2.052.957-2.725.638-.673 1.387-1.01 2.245-1.01.87 0 1.635.348 2.297 1.042.661.697.992 1.588.992 2.677zm-.459-10.535c0 .817-.255 1.486-.762 2.003-.508.516-1.159.773-1.949.773-.891 0-1.606-.261-2.144-.782-.535-.521-.804-1.208-.804-2.06 0-.833.262-1.508.789-2.03.523-.522 1.205-.782 2.04-.782.826 0 1.503.267 2.033.798.532.533.797 1.226.797 2.08zm5.626 2.693c.635-.966.95-2.004.95-3.114 0-1.907-.793-3.491-2.382-4.746-1.585-1.257-4.042-1.887-7.361-1.887-2.51 0-4.526.506-6.052 1.515-1.955 1.314-2.932 3.003-2.932 5.068 0 1.257.34 2.366 1.018 3.33.496.709 1.287 1.347 2.371 1.92-1.411.549-2.457 1.327-3.134 2.33-.678 1.005-1.018 2.232-1.018 3.68 0 1.48.363 2.82 1.084 4.02.724 1.202 1.782 2.11 3.172 2.728 1.389.616 3.398.923 6.032.923 1.402 0 2.72-.134 3.958-.41 1.236-.276 2.27-.704 3.102-1.288.829-.584 1.53-1.41 2.1-2.483.57-1.07.855-2.224.855-3.459 0-1.277-.33-2.445-.99-3.5-.662-1.054-1.664-1.902-3.009-2.54 1.016-.674 1.764-1.371 2.236-2.087z"/><path id="94jwd" d="M1042.086 75.03c-.765.181-1.538.456-2.318.82l.604-3.765h11.286v-5.56h-16.663l-2.223 13.484 5.98.854c.563-.627 1.08-1.058 1.551-1.3a4.186 4.186 0 0 1 1.965-.496c1.068 0 1.923.35 2.568 1.045.642.697.964 1.79.964 3.284 0 1.462-.32 2.56-.955 3.295-.64.736-1.447 1.104-2.423 1.104a3.195 3.195 0 0 1-2.256-.88c-.633-.59-1.035-1.445-1.208-2.577l-7.098.77c.345 1.177.776 2.156 1.291 2.944.518.788 1.193 1.492 2.025 2.113.832.622 1.844 1.09 3.033 1.403 1.189.315 2.617.471 4.282.471 2.321 0 4.226-.393 5.712-1.182 1.488-.785 2.637-1.928 3.448-3.421.808-1.493 1.213-3.052 1.213-4.672 0-2.305-.785-4.215-2.36-5.733-1.574-1.517-3.624-2.276-6.152-2.276-.747 0-1.502.093-2.266.275z"/><path id="94jwe" d="M1267.94 85.485h9.056V71.379h-6.06c-.325 5.05-1.042 10.36-2.996 14.106zm-7.851 9.252v-9.252h2.67c2.933-5.245 3.617-12.152 3.617-18.504h15.507v18.504h2.9v9.252h-4.3v-4.952h-16.094v4.952zm-11.175-23.456h-3.942v6.711h3.942c2.509 0 4.626-.684 4.626-3.355 0-2.704-2.117-3.356-4.626-3.356zm-.228-4.3c5.506 0 9.839 1.759 9.839 7.656 0 5.896-4.333 7.655-9.839 7.655h-3.714v7.493h-4.886V66.981zm-28.766 14.497h7.363l-3.193-8.177c-.163-.456-.326-.912-.489-1.792-.163.88-.325 1.336-.52 1.792zm-8.275 8.307l9.318-22.804h5.277l9.285 22.804h-5.05l-1.661-4.267h-10.425l-1.694 4.267zm-11.076-4.3c1.922 0 3.714-.424 3.714-2.867s-1.792-2.867-3.714-2.867h-5.05v5.734zm-.033-10.034c4.496 0 8.731 1.531 8.731 7.167 0 5.669-4.235 7.167-8.73 7.167h-9.904V66.981h16.777v4.398h-11.89v4.072zm-16.81-8.47v22.804h-4.887v-14.04l-6.026 9.154h-2.835l-6.027-9.187v14.073h-4.886V66.981h4.528l7.819 11.858 7.786-11.858zm-42.416 4.072c-4.757 0-7.135 3.323-7.135 7.33s2.378 7.33 7.135 7.33c4.724 0 7.102-3.323 7.102-7.33s-2.378-7.33-7.102-7.33zm0-4.528c8.08 0 12.119 5.668 12.119 11.858s-4.04 11.858-12.12 11.858c-8.078 0-12.118-5.668-12.118-11.858s4.04-11.858 12.119-11.858zm-17.755.456v22.804h-4.887V71.38h-6.255c-.782 9.708-1.824 18.667-8.144 18.7a7.411 7.411 0 0 1-2.541-.424v-4.3c.423.13.912.195 1.564.163 3.844-.261 4.04-10.523 4.626-18.537z"/></defs><g><g transform="translate(-987 -66)"><g><use fill="#ffca05" xlink:href="#94jwa"/></g><g><use fill="red" xlink:href="#94jwb"/></g><g><use fill="red" xlink:href="#94jwc"/></g><g><use fill="red" xlink:href="#94jwd"/></g><g><use fill="red" xlink:href="#94jwe"/><use fill="#fff" fill-opacity="0" stroke="red" stroke-miterlimit="50" xlink:href="#94jwe"/></g></g></g></svg>