<svg xmlns="http://www.w3.org/2000/svg" xmlns:xlink="http://www.w3.org/1999/xlink" width="42.941" height="42.941" viewBox="0 0 42.941 42.941">
  <defs>
    <filter id="Шеврон_П" x="0" y="0" width="42.941" height="42.941" filterUnits="userSpaceOnUse">
      <feOffset dx="1" dy="1" input="SourceAlpha"/>
      <feGaussianBlur stdDeviation="1.5" result="blur"/>
      <feFlood flood-opacity="0.161"/>
      <feComposite operator="in" in2="blur"/>
      <feComposite in="SourceGraphic"/>
    </filter>
  </defs>
  <g transform="matrix(1, 0, 0, 1, 0, 0)" filter="url(#Шеврон_П)">
    <g id="Шеврон_П-2" data-name="Шеврон П" transform="translate(900.82 738.18) rotate(45)" fill="rgba(0,0,0,0.3)">
      <path d="M -1121.00048828125 126.4999084472656 L -1139.00048828125 126.4999084472656 C -1140.378784179688 126.4999084472656 -1141.500122070312 125.378547668457 -1141.500122070312 124.0002059936523 L -1141.500122070312 106.0002059936523 C -1141.500122070312 104.6213684082031 -1140.378784179688 103.4996032714844 -1139.00048828125 103.4996032714844 C -1137.621704101562 103.4996032714844 -1136.499877929688 104.6213684082031 -1136.499877929688 106.0002059936523 L -1136.499877929688 120.9996032714844 L -1136.499877929688 121.4996032714844 L -1135.999877929688 121.4996032714844 L -1121.00048828125 121.4996032714844 C -1119.621704101562 121.4996032714844 -1118.499877929688 122.6213684082031 -1118.499877929688 124.0002059936523 C -1118.499877929688 125.378547668457 -1119.621704101562 126.4999084472656 -1121.00048828125 126.4999084472656 Z" stroke="none"/>
      <path d="M -1121.00048828125 125.9999084472656 C -1119.897338867188 125.9999084472656 -1118.999877929688 125.1028442382812 -1118.999877929688 124.0002059936523 C -1118.999877929688 122.8970794677734 -1119.897338867188 121.9996032714844 -1121.00048828125 121.9996032714844 L -1135.999877929688 121.9996032714844 L -1136.999877929688 121.9996032714844 L -1136.999877929688 120.9996032714844 L -1136.999877929688 106.0002059936523 C -1136.999877929688 104.8970794677734 -1137.897338867188 103.9996032714844 -1139.00048828125 103.9996032714844 C -1140.103149414062 103.9996032714844 -1141.000122070312 104.8970794677734 -1141.000122070312 106.0002059936523 L -1141.000122070312 124.0002059936523 C -1141.000122070312 125.1028442382812 -1140.103149414062 125.9999084472656 -1139.00048828125 125.9999084472656 L -1121.00048828125 125.9999084472656 M -1121.00048828125 126.9999084472656 L -1139.00048828125 126.9999084472656 C -1140.656372070312 126.9999084472656 -1142.000122070312 125.6571044921875 -1142.000122070312 124.0002059936523 L -1142.000122070312 106.0002059936523 C -1142.000122070312 104.3432922363281 -1140.656372070312 102.9996032714844 -1139.00048828125 102.9996032714844 C -1137.343505859375 102.9996032714844 -1135.999877929688 104.3432922363281 -1135.999877929688 106.0002059936523 L -1135.999877929688 120.9996032714844 L -1121.00048828125 120.9996032714844 C -1119.343505859375 120.9996032714844 -1117.999877929688 122.3432922363281 -1117.999877929688 124.0002059936523 C -1117.999877929688 125.6571044921875 -1119.343505859375 126.9999084472656 -1121.00048828125 126.9999084472656 Z" stroke="none" fill="#fff"/>
    </g>
  </g>
</svg>
