<svg xmlns="http://www.w3.org/2000/svg" xmlns:xlink="http://www.w3.org/1999/xlink" width="42.941" height="42.941" viewBox="0 0 42.941 42.941">
  <defs>
    <filter id="Шеврон_Л" x="0" y="0" width="42.941" height="42.941" filterUnits="userSpaceOnUse">
      <feOffset dx="1" dy="1" input="SourceAlpha"/>
      <feGaussianBlur stdDeviation="1.5" result="blur"/>
      <feFlood flood-opacity="0.161"/>
      <feComposite operator="in" in2="blur"/>
      <feComposite in="SourceGraphic"/>
    </filter>
  </defs>
  <g transform="matrix(1, 0, 0, 1, 0, 0)" filter="url(#Шеврон_Л)">
    <g id="Шеврон_Л-2" data-name="Шеврон Л" transform="translate(-878.97 -679.57) rotate(-135)" fill="rgba(0,0,0,0.3)">
      <path d="M -1122.000366210938 152.5 L -1140.000366210938 152.5 C -1141.378662109375 152.5 -1142.5 151.3786315917969 -1142.5 150.0003051757812 L -1142.5 132.0003051757812 C -1142.5 130.6214599609375 -1141.378662109375 129.4997100830078 -1140.000366210938 129.4997100830078 C -1138.62158203125 129.4997100830078 -1137.499755859375 130.6214599609375 -1137.499755859375 132.0003051757812 L -1137.499755859375 146.9997100830078 L -1137.499755859375 147.4997100830078 L -1136.999755859375 147.4997100830078 L -1122.000366210938 147.4997100830078 C -1120.62158203125 147.4997100830078 -1119.499755859375 148.6214599609375 -1119.499755859375 150.0003051757812 C -1119.499755859375 151.3786315917969 -1120.62158203125 152.5 -1122.000366210938 152.5 Z" stroke="none"/>
      <path d="M -1122.000366210938 152 C -1120.897216796875 152 -1119.999755859375 151.1029357910156 -1119.999755859375 150.0003051757812 C -1119.999755859375 148.8971710205078 -1120.897216796875 147.9997100830078 -1122.000366210938 147.9997100830078 L -1136.999755859375 147.9997100830078 L -1137.999755859375 147.9997100830078 L -1137.999755859375 146.9997100830078 L -1137.999755859375 132.0003051757812 C -1137.999755859375 130.8971710205078 -1138.897216796875 129.9997100830078 -1140.000366210938 129.9997100830078 C -1141.10302734375 129.9997100830078 -1142 130.8971710205078 -1142 132.0003051757812 L -1142 150.0003051757812 C -1142 151.1029357910156 -1141.10302734375 152 -1140.000366210938 152 L -1122.000366210938 152 M -1122.000366210938 153 L -1140.000366210938 153 C -1141.6572265625 153 -1143 151.6572113037109 -1143 150.0003051757812 L -1143 132.0003051757812 C -1143 130.3433990478516 -1141.6572265625 128.9997100830078 -1140.000366210938 128.9997100830078 C -1138.343383789062 128.9997100830078 -1136.999755859375 130.3433990478516 -1136.999755859375 132.0003051757812 L -1136.999755859375 146.9997100830078 L -1122.000366210938 146.9997100830078 C -1120.343383789062 146.9997100830078 -1118.999755859375 148.3433990478516 -1118.999755859375 150.0003051757812 C -1118.999755859375 151.6572113037109 -1120.343383789062 153 -1122.000366210938 153 Z" stroke="none" fill="#fff"/>
    </g>
  </g>
</svg>
